<svg xmlns="http://www.w3.org/2000/svg" width="14.132" height="14.132" viewBox="0 0 14.132 14.132"><defs><style>.a{fill:#2092a2;}</style></defs><path class="a" d="M12.476,1.1h-.662V0h-1.1V1.1H3.423V0h-1.1V1.1H1.656A1.658,1.658,0,0,0,0,2.76v9.716a1.658,1.658,0,0,0,1.656,1.656h10.82a1.658,1.658,0,0,0,1.656-1.656V2.76A1.658,1.658,0,0,0,12.476,1.1Zm.552,11.372a.553.553,0,0,1-.552.552H1.656a.553.553,0,0,1-.552-.552V5.189H13.028Zm0-8.391H1.1V2.76a.553.553,0,0,1,.552-.552h.662v1.1h1.1v-1.1h7.287v1.1h1.1v-1.1h.662a.553.553,0,0,1,.552.552Z"/><g transform="translate(2.264 6.585)"><g transform="translate(0 0)"><rect class="a" width="1" height="1" transform="translate(-0.264 -0.453)"/></g></g><g transform="translate(4.151 6.585)"><g transform="translate(0 0)"><rect class="a" width="1" height="1" transform="translate(-0.151 -0.453)"/></g></g><g transform="translate(6.415 6.585)"><g transform="translate(0 0)"><rect class="a" width="2" height="1" transform="translate(-0.415 -0.453)"/></g></g><g transform="translate(8.679 6.585)"><g transform="translate(0 0)"><rect class="a" width="1" height="1" transform="translate(0.321 -0.453)"/></g></g><g transform="translate(10.943 6.585)"><g transform="translate(0 0)"><rect class="a" width="1" height="1" transform="translate(0.057 -0.453)"/></g></g><g transform="translate(2.264 8.472)"><g transform="translate(0 0)"><rect class="a" width="1" height="1" transform="translate(-0.264 -0.34)"/></g></g><g transform="translate(4.151 8.472)"><g transform="translate(0 0)"><rect class="a" width="1" height="1" transform="translate(-0.151 -0.34)"/></g></g><g transform="translate(6.415 8.472)"><g transform="translate(0 0)"><rect class="a" width="2" height="1" transform="translate(-0.415 -0.34)"/></g></g><g transform="translate(8.679 8.472)"><g transform="translate(0 0)"><rect class="a" width="1" height="1" transform="translate(0.321 -0.34)"/></g></g><g transform="translate(2.264 10.736)"><g transform="translate(0 0)"><rect class="a" width="1" height="1" transform="translate(-0.264 0.396)"/></g></g><g transform="translate(4.151 10.736)"><g transform="translate(0 0)"><rect class="a" width="1" height="1" transform="translate(-0.151 0.396)"/></g></g><g transform="translate(6.415 10.736)"><g transform="translate(0 0)"><rect class="a" width="2" height="1" transform="translate(-0.415 0.396)"/></g></g><g transform="translate(8.679 10.736)"><g transform="translate(0 0)"><rect class="a" width="1" height="1" transform="translate(0.321 0.396)"/></g></g><g transform="translate(10.943 8.472)"><g transform="translate(0 0)"><rect class="a" width="1" height="1" transform="translate(0.057 -0.34)"/></g></g></svg>