<svg xmlns="http://www.w3.org/2000/svg" width="36.084" height="28.867" viewBox="0 0 36.084 28.867"><defs><style>.a{fill:#030a54;}</style></defs><path class="a" d="M21.65,18.042H14.434a1.8,1.8,0,0,0-1.8,1.8v7.217a1.8,1.8,0,0,0,1.8,1.8H21.65a1.8,1.8,0,0,0,1.8-1.8V19.846A1.8,1.8,0,0,0,21.65,18.042ZM10.825,1.8A1.8,1.8,0,0,0,9.021,0H1.8A1.8,1.8,0,0,0,0,1.8V9.021a1.8,1.8,0,0,0,1.8,1.8H7.2l4.125,7.219a3.6,3.6,0,0,1,3.108-1.806h.016L10.825,9.9V7.217H23.455V3.608H10.825ZM34.28,0H27.063a1.8,1.8,0,0,0-1.8,1.8V9.021a1.8,1.8,0,0,0,1.8,1.8H34.28a1.8,1.8,0,0,0,1.8-1.8V1.8A1.8,1.8,0,0,0,34.28,0Z"/></svg>