<svg xmlns="http://www.w3.org/2000/svg" xmlns:xlink="http://www.w3.org/1999/xlink" width="27.046" height="27.05" viewBox="0 0 27.046 27.05"><defs><style>.a{fill:#2935a2;}.b{filter:url(#a);}</style><filter id="a" x="0" y="0" width="27.046" height="27.05" filterUnits="userSpaceOnUse"><feOffset dy="1" input="SourceAlpha"/><feGaussianBlur stdDeviation="1" result="b"/><feFlood flood-opacity="0.161"/><feComposite operator="in" in2="b"/><feComposite in="SourceGraphic"/></filter></defs><g class="b" transform="matrix(1, 0, 0, 1, 0, 0)"><path class="a" d="M20.76,18.2l-4.1-4.1a.986.986,0,0,0-.7-.288h-.67a8.547,8.547,0,1,0-1.48,1.48v.67a.986.986,0,0,0,.288.7l4.1,4.1a.983.983,0,0,0,1.394,0L20.756,19.6A.991.991,0,0,0,20.76,18.2ZM8.551,13.813a5.262,5.262,0,1,1,5.262-5.262A5.259,5.259,0,0,1,8.551,13.813Z" transform="translate(3 2)"/></g></svg>